<svg width="146" height="163" viewBox="0 0 146 163" fill="none" xmlns="http://www.w3.org/2000/svg">
<rect width="146" height="163" fill="#00290E"/>
<path d="M102.108 115.475C111.519 127.562 117.885 139.477 122.246 149.769C122.594 150.593 123.416 151.13 124.33 151.13C125.573 151.13 126.586 150.146 126.586 148.938V33.5082C126.586 32.0572 124.534 31.6417 123.949 32.9841C121.719 38.0531 119.266 43.0198 116.583 47.8714C107.744 63.8454 96.5443 78.4579 83.2859 91.3061L82.1416 92.412C81.5826 92.9553 81.6089 93.8374 82.1942 94.3488C88.5077 99.9036 95.4131 106.871 102.108 115.475Z" fill="#F6FFF9"/>
<path d="M19.3685 151.13C19.9933 151.13 20.5983 150.875 21.0258 150.434L77.6962 91.4788L78.9523 90.1748L82.7075 86.2692L82.6747 86.2372C94.6638 74.2135 104.851 60.6814 112.986 45.9794C114.545 43.1605 116.024 40.3096 117.425 37.4203C121.555 28.8868 124.995 20.0209 127.718 10.944H120.516C117.064 21.9769 112.506 32.6645 106.896 42.8025C99.0832 56.9292 89.2973 69.9308 77.7817 81.4942C76.8346 80.561 75.8811 79.6149 74.9209 78.6497C66.7002 70.3783 58.1703 61.1096 49.6208 50.7671C38.4143 37.2285 29.0032 24.0799 21.1179 11.8645C19.9538 10.0619 17.0996 10.8609 17.0996 12.9895V148.925C17.0996 150.14 18.1124 151.13 19.3685 151.13Z" fill="#F6FFF9"/>
<path d="M75.875 52.5505C83.3827 52.5505 89.4688 46.6351 89.4688 39.338C89.4688 32.0409 83.3827 26.1254 75.875 26.1254C68.3674 26.1254 62.2812 32.0409 62.2812 39.338C62.2812 46.6351 68.3674 52.5505 75.875 52.5505Z" fill="#F6FFF9"/>
<path d="M88.5607 151.13V125.696C88.5607 119.515 83.3587 114.459 76.9991 114.459C70.6396 114.459 65.4375 119.515 65.4375 125.696V151.13H88.5607Z" fill="#F6FFF9"/>
</svg>
