<?xml version="1.0" encoding="UTF-8"?>
<svg id="Layer_1" data-name="Layer 1" xmlns="http://www.w3.org/2000/svg" viewBox="0 0 1809.61 1080">
  <defs>
    <style>
      .cls-1 {
        fill: #fff;
        stroke-width: 0px;
      }
    </style>
  </defs>
  <g>
    <path class="cls-1" d="M168.42,584.09c14.31,18.91,23.99,37.55,30.62,53.65.53,1.29,1.78,2.13,3.17,2.13h0c1.89,0,3.43-1.54,3.43-3.43v-180.58c0-2.27-3.12-2.92-4.01-.82-3.39,7.93-7.12,15.7-11.2,23.29-13.44,24.99-30.47,47.85-50.63,67.95l-1.74,1.73c-.85.85-.81,2.23.08,3.03,9.6,8.69,20.1,19.59,30.28,33.05h0Z"/>
    <path class="cls-1" d="M42.61,639.87c.95,0,1.87-.4,2.52-1.09l86.17-92.23,1.91-2.04,5.71-6.11-.05-.05c18.23-18.81,33.72-39.98,46.09-62.98,2.37-4.41,4.62-8.87,6.75-13.39,6.28-13.35,11.51-27.22,15.65-41.42h-10.95c-5.25,17.26-12.18,33.98-20.71,49.84-11.88,22.1-26.76,42.44-44.27,60.53-1.44-1.46-2.89-2.94-4.35-4.45-12.5-12.94-25.47-27.44-38.47-43.62-17.04-21.18-31.35-41.75-43.34-60.86-1.77-2.82-6.11-1.57-6.11,1.76v212.66c0,1.9,1.54,3.45,3.45,3.45h0Z"/>
    <circle class="cls-1" cx="128.53" cy="464.98" r="20.67"/>
    <path class="cls-1" d="M147.82,639.87v-39.79c0-9.67-7.91-17.58-17.58-17.58s-17.58,7.91-17.58,17.58v39.79h35.16Z"/>
  </g>
  <g>
    <path class="cls-1" d="M371.93,570.44c0,20.05-19.57,36.24-43.48,36.24-12.08,0-76.09.24-77.54.24-1.2,0-2.65-.96-2.42-2.42.49-3.38,11.84-.73,11.84-19.57v-90.82c0-18.84-11.35-15.95-11.84-19.57-.24-1.45,1.2-2.18,2.42-2.18h66.19c24.16,0,43.73,16.19,43.73,36.23,0,11.35-6.52,21.49-16.42,28.27,16.19,5.32,27.54,18.36,27.54,33.57h-.01ZM303.33,534.2c14.5,0,25.36-11.12,25.36-25.6s-10.87-25.6-25.36-25.6h-7.97v51.21h7.97ZM342.22,570.44c0-14.73-10.87-25.6-25.36-25.6h-21.49v51.21h21.49c14.5,0,25.36-10.87,25.36-25.6h0Z"/>
    <path class="cls-1" d="M472.18,536.13c0,25.85-32.61,28.27-32.61,8.7,6.28,0,7.25-11.12-.73-11.12-9.43,0-23.91,8.21-31.41,32.85v18.36c0,18.84,11.35,16.19,11.83,19.57.24,1.45-1.2,2.42-2.65,2.42-2.65,0-14.25-2.9-22.95-2.9s-20.29,2.9-23.19,2.9c-1.2,0-2.65-.96-2.42-2.42.49-3.38,11.84-.73,11.84-19.57v-30.92c0-19.08-12.08-20.78-11.84-24.16,0-1.2,1.2-2.18,2.42-2.18,11.59,0,28.02-9.42,31.16-13.28,2.9-3.38,5.8-2.65,5.8.49v29.96c16.19-44.45,64.73-39.37,64.73-8.7h.01Z"/>
    <path class="cls-1" d="M566.14,581.3c-7.72,14.25-25.6,25.6-43.24,25.6-27.3,0-49.52-21.26-49.52-47.34s22.22-47.34,49.52-47.34c38.17,0,49.03,30.68,32.37,47.83-12.56,13.28-41.79,16.66-50,2.42,1.93,36.72,41.06,32.37,54.83,18.35,3.38-3.62,7.97-3.14,6.03.49h0ZM505.51,554.74c25.36,14.25,41.31-27.3,24.4-30.68-12.32-2.42-22.95,12.56-24.4,30.68h0Z"/>
    <path class="cls-1" d="M659.14,581.3c-7.72,14.25-25.6,25.6-43.24,25.6-27.3,0-49.52-21.26-49.52-47.34s22.22-47.34,49.52-47.34c38.17,0,49.03,30.68,32.37,47.83-12.56,13.28-41.79,16.66-50,2.42,1.93,36.72,41.06,32.37,54.83,18.35,3.38-3.62,7.97-3.14,6.03.49h0ZM598.51,554.74c25.36,14.25,41.31-27.3,24.4-30.68-12.32-2.42-22.95,12.56-24.4,30.68Z"/>
    <path class="cls-1" d="M709.38,592.42c-.96,1.2-1.69,2.65-2.42,3.87h15.95c11.59,0,30.19-14.5,35.03-19.8,2.9-3.38,7.25-2.18,5.56,1.45-2.42,5.07-14.01,28.99-14.01,28.99h-80.92l.49-.73-2.9.73c-1.69.24-3.62-3.87.96-5.31,5.56-1.93,10.39-5.56,13.77-11.12l39.86-63.77,2.42-3.87h-20.78c-18.6,0-17.88,16.19-5.8,16.19,0,20.53-37.2,19.8-37.2-1.93,0-15.7,15.46-24.89,43-24.89h61.6c2.42-.49,3.87,4.34-.96,5.8-5.56,1.93-11.35,6.76-14.73,12.32l-38.89,62.08h-.01Z"/>
    <path class="cls-1" d="M860.59,581.3c-7.72,14.25-25.6,25.6-43.24,25.6-27.3,0-49.52-21.26-49.52-47.34s22.22-47.34,49.52-47.34c38.17,0,49.03,30.68,32.37,47.83-12.56,13.28-41.79,16.66-50,2.42,1.93,36.72,41.06,32.37,54.83,18.35,3.38-3.62,7.97-3.14,6.03.49ZM799.96,554.74c25.36,14.25,41.31-27.3,24.4-30.68-12.32-2.42-22.95,12.56-24.4,30.68Z"/>
    <path class="cls-1" d="M992.24,606.9c-.96,0-22.95-6.52-36.96,0v-11.35c-4.34,5.8-15.46,11.35-32.12,11.35-27.29,0-36.48-31.16-3.87-43.73,13.04-5.07,35.99-8.21,35.99-20.29s-6.03-22.71-17.39-21.02c-13.04,2.18-14.01,21.98-.73,21.98,0,17.39-34.79,20.05-34.79-2.42,0-15.7,17.39-29.23,38.89-29.23,24.64,0,41.79,10.63,41.79,38.17v34.54c0,18.84,11.12,16.19,11.59,19.57.24,1.45-1.2,2.42-2.42,2.42h0ZM955.28,559.56c-5.8,5.07-31.16,12.81-27.54,26.09,3.14,12.32,18.36,9.18,27.54-1.93v-24.16Z"/>
    <path class="cls-1" d="M1101.18,604.5c0,1.45-1.2,2.42-2.65,2.42-2.9,0-14.5-2.9-22.95-2.9s-20.29,2.9-23.2,2.9c-1.2,0-2.65-.96-2.42-2.42.49-3.38,11.59-.73,11.59-19.57v-30.68c0-30.43-22.46-32.85-35.03-16.66v47.34c0,18.84,11.35,16.19,11.84,19.57.24,1.45-1.2,2.42-2.65,2.42-2.65,0-14.25-2.9-22.95-2.9s-20.29,2.9-23.19,2.9c-1.2,0-2.65-.96-2.42-2.42.49-3.38,11.84-.73,11.84-19.57v-30.92c0-19.08-12.08-20.78-11.84-24.16,0-1.2,1.2-2.18,2.42-2.18,11.59,0,28.03-9.42,31.16-13.28,2.9-3.38,5.8-2.65,5.8.49v11.59s13.53-14.25,26.81-14.25c24.64,0,35.99,18.84,35.99,42.04v30.68c0,18.84,11.12,16.19,11.84,19.57h-.01Z"/>
    <path class="cls-1" d="M1201.18,598.45c0,1.2-1.2,1.93-2.42,1.93-11.59,0-28.02,9.66-31.16,13.53-2.9,3.14-5.8,2.65-5.8-.73v-12.32c-6.28,3.87-13.53,6.03-21.02,6.03-23.91,0-43.24-21.26-43.24-47.34s19.33-47.34,43.24-47.34c7.49,0,14.73,2.18,21.02,6.05v-13.77c0-18.84-12.08-20.78-11.84-24.16,0-1.2,1.2-2.18,2.42-2.18,11.59,0,28.02-9.43,31.16-13.28,2.9-3.14,5.8-2.65,5.8.73v108.7c0,18.84,12.08,20.77,11.83,24.16h.01ZM1161.81,528.64c-1.93-2.65-4.34-4.59-7.25-5.07-9.9-2.18-21.74,9.9-26.58,30.19-4.83,19.33,1.93,39.86,12.81,41.79,8.45,1.69,16.19-7.25,21.02-20.78v-46.14h0Z"/>
    <path class="cls-1" d="M1360.85,564.39v20.53c0,18.84,11.12,16.19,11.59,19.57.24,1.45-.96,2.42-2.42,2.42-.73,0-9.18-.24-9.18-.24-13.53.24-44.93.24-51.45.24-38.89,0-70.54-30.19-70.54-67.4s33.57-67.15,72.47-67.15c34.06,0,61.11,17.64,58.21,37.2-4.11,28.74-49.52,29.96-49.52,1.2,18.11,0,12.81-27.78-8.7-27.78-15.95,0-30.92,25.36-30.92,56.52,0,40.1,22.71,54.11,45.42,52.18v-27.3c-.24-18.84-11.35-16.19-11.83-19.57-.24-1.45,1.2-2.42,2.42-2.42,1.45,0,15.46,3.38,26.81,3.38s25.36-3.38,26.81-3.38,2.65.96,2.42,2.42c-.49,3.38-11.59.73-11.59,19.57h0Z"/>
    <path class="cls-1" d="M1527.04,604.5c.24,1.45-1.2,2.42-2.42,2.42-.96,0-22.95-6.52-36.96,0v-11.35c-4.34,5.8-15.7,11.35-32.12,11.35-27.54,0-36.48-31.16-3.87-43.73,12.81-5.07,35.75-8.21,35.75-20.29,0-15.95-24.64-25.85-52.9-4.83-9.9,7.25-18.35,17.39-22.22,28.5v18.36c0,18.84,11.35,16.19,11.84,19.57.24,1.45-1.2,2.42-2.65,2.42-2.65,0-14.25-2.9-22.95-2.9s-20.29,2.9-23.2,2.9c-1.2,0-2.65-.96-2.42-2.42.49-3.38,11.84-.73,11.84-19.57v-30.92c0-19.08-12.08-20.78-11.84-24.16,0-1.2,1.2-2.18,2.42-2.18,11.59,0,28.02-9.42,31.16-13.28,2.65-3.38,5.8-2.65,5.8.49v31.65c15.95-23.43,43.24-34.3,61.35-34.3,24.64,0,41.55,10.63,41.55,38.17v34.54c0,18.84,11.35,16.19,11.84,19.57h-.01ZM1487.67,583.72v-24.16c-6.03,5.07-31.16,12.81-27.78,26.09,3.38,12.32,18.6,9.18,27.78-1.93Z"/>
    <path class="cls-1" d="M1553.61,604.01c-8.7,0-20.29,2.9-23.2,2.9-1.2,0-2.65-.96-2.42-2.42.49-3.38,11.84-.73,11.84-19.57v-30.92c0-19.08-12.08-20.78-11.84-24.16,0-1.2,1.2-2.18,2.42-2.18,11.59,0,28.02-9.42,31.16-13.28,2.9-3.38,5.8-2.65,5.8.49v70.05c0,18.84,11.35,16.19,11.84,19.57.24,1.45-1.2,2.42-2.65,2.42-2.65,0-14.25-2.9-22.95-2.9h0ZM1538.39,492.65c0-8.45,6.76-15.22,14.97-15.22s15.22,6.76,15.22,15.22-6.76,14.97-15.22,14.97-14.97-6.76-14.97-14.97Z"/>
    <path class="cls-1" d="M1693.23,604.5c0,1.45-1.2,2.42-2.65,2.42-2.9,0-14.5-2.9-22.95-2.9s-20.29,2.9-23.19,2.9c-1.21,0-2.65-.96-2.42-2.42.49-3.38,11.59-.73,11.59-19.57v-30.68c0-30.43-22.47-32.85-35.03-16.66v47.34c0,18.84,11.35,16.19,11.84,19.57.24,1.45-1.2,2.42-2.65,2.42-2.65,0-14.25-2.9-22.95-2.9s-20.29,2.9-23.2,2.9c-1.2,0-2.65-.96-2.42-2.42.49-3.38,11.84-.73,11.84-19.57v-30.92c0-19.08-12.08-20.78-11.84-24.16,0-1.2,1.2-2.18,2.42-2.18,11.59,0,28.02-9.42,31.16-13.28,2.9-3.38,5.8-2.65,5.8.49v11.59s13.53-14.25,26.81-14.25c24.64,0,35.99,18.84,35.99,42.04v30.68c0,18.84,11.12,16.19,11.84,19.57h-.01Z"/>
    <path class="cls-1" d="M1736.22,520.91c-7.49.24-12.56,4.83-10.87,12.56,2.65,11.12,20.78,17.15,31.41,23.67l2.42,1.45c7,4.83,11.35,11.84,12.81,17.88,3.38,14.25-9.18,28.99-34.54,30.19-24.64,1.2-40.58-6.52-43.24-17.39-3.87-16.91,27.54-20.05,31.65-5.56-11.59,3.38-5.31,14.5,4.83,14.25,7.49,0,12.81-4.59,10.87-12.56-2.65-10.87-20.05-17.39-30.68-23.67l-2.65-1.69c-6.76-4.59-11.59-11.59-13.04-17.64-3.38-14.01,8.94-28.74,34.54-30.19,24.64-1.2,40.35,6.52,43,17.64,4.11,16.91-27.54,20.05-31.65,5.56,11.59-3.38,5.56-14.5-4.83-14.5h-.01Z"/>
  </g>
</svg>