<?xml version="1.0" encoding="UTF-8"?>
<svg id="Layer_1" data-name="Layer 1" xmlns="http://www.w3.org/2000/svg" viewBox="0 0 1795.22 1080">
  <defs>
    <style>
      .cls-1 {
        letter-spacing: -.06em;
      }

      .cls-2 {
        letter-spacing: -.02em;
      }

      .cls-3 {
        font-family: Boska-Medium, Boska;
        font-size: 57.93px;
        font-weight: 500;
      }

      .cls-3, .cls-4, .cls-5 {
        fill: #172f1c;
      }

      .cls-6 {
        letter-spacing: -.05em;
      }

      .cls-7 {
        letter-spacing: 0em;
      }

      .cls-8 {
        letter-spacing: -.02em;
      }

      .cls-9 {
        letter-spacing: 0em;
      }

      .cls-10 {
        letter-spacing: -.06em;
      }

      .cls-11 {
        letter-spacing: -.02em;
      }

      .cls-12 {
        letter-spacing: 0em;
      }

      .cls-4 {
        stroke-width: 0px;
      }

      .cls-13 {
        letter-spacing: 0em;
      }

      .cls-14 {
        fill: none;
        stroke: #231f20;
        stroke-miterlimit: 10;
        stroke-width: 3.01px;
      }

      .cls-15 {
        letter-spacing: -.02em;
      }

      .cls-16 {
        letter-spacing: -.04em;
      }

      .cls-17 {
        letter-spacing: -.01em;
      }

      .cls-5 {
        font-family: SafiraMarchPersonalUseOnly-Rg, 'Safira March Personal Use Only';
        font-size: 184.93px;
      }
    </style>
  </defs>
  <text class="cls-5" transform="translate(368.86 547.76)"><tspan class="cls-15" x="0" y="0">B</tspan><tspan class="cls-16" x="117.62" y="0">r</tspan><tspan class="cls-7" x="197.69" y="0">e</tspan><tspan class="cls-10" x="302.91" y="0">e</tspan><tspan class="cls-1" x="397.41" y="0">z</tspan><tspan class="cls-12" x="474.71" y="0">e </tspan><tspan class="cls-2" x="627.46" y="0">an</tspan><tspan x="832.92" y="0">d M</tspan><tspan class="cls-17" x="1130.65" y="0">i</tspan><tspan class="cls-6" x="1161.72" y="0">s</tspan><tspan x="1251.78" y="0">t</tspan></text>
  <text class="cls-3" transform="translate(567.01 632.64)"><tspan x="0" y="0">Experien</tspan><tspan class="cls-9" x="213.86" y="0">c</tspan><tspan x="238.82" y="0">e the </tspan><tspan class="cls-8" x="367.94" y="0">H</tspan><tspan x="405.41" y="0">eig</tspan><tspan class="cls-13" x="474.75" y="0">h</tspan><tspan x="506.43" y="0">ts of </tspan><tspan class="cls-11" x="620.19" y="0">Tr</tspan><tspan x="670.65" y="0">anquility</tspan></text>
  <g>
    <path class="cls-4" d="M145.48,638.77h-3.06v-153.3l1.68.17c.46.05,11.49,1.19,28.54,6.31,1.16.34,2.37.72,3.69,1.15l.18.05c4.21,1.35,8.53,2.87,12.84,4.53l1.01.39c4.61,1.79,9.29,3.79,13.9,5.95l.17.08c.22.1.44.21.67.31l.08.04c2.81,1.32,5.63,2.71,8.36,4.14,2.31,1.2,4.7,2.49,7.11,3.84h0l.36.2c2.56,1.45,4.96,2.86,7.33,4.32,1.04.64,2.08,1.3,3.13,1.96h0l.38.24c.79.51,1.57,1.01,2.37,1.53.27.18.51.34.76.51l.57.38c41.36,27.52,72.09,66.57,91.32,116.08l-2.85,1.11c-19-48.91-49.33-87.48-90.17-114.65l-.56-.37c-.26-.17-.52-.34-.77-.51-.68-.44-1.37-.89-2.06-1.33l-.27-.17c-1.16-.74-2.32-1.47-3.47-2.18-2.24-1.38-4.51-2.72-6.93-4.09l-.31-.17c-2.49-1.41-4.97-2.75-7.36-3.99-2.7-1.41-5.48-2.78-8.26-4.08l-.09-.04c-.11-.05-.23-.11-.34-.16h0l-.31-.14c-4.61-2.15-9.28-4.15-13.88-5.94l-.77-.3c-4.25-1.64-8.51-3.15-12.67-4.49h0l-.24-.07c-1.37-.44-2.62-.83-3.8-1.19-12.98-3.9-22.58-5.47-26.29-5.98v149.88Z"/>
    <path class="cls-4" d="M326.97,638.83h-3.06v-149.93c-8.44,1.19-47.35,7.92-88.37,35.21l-.19.12c-.36.24-.73.48-1.09.73l-.06.04c-.27.18-.54.36-.81.54l-.42.29c-.77.53-1.56,1.07-2.35,1.63-1.97,1.38-4.01,2.87-6.1,4.43-.39.3-.78.59-1.17.9-2.08,1.58-4.17,3.23-6.2,4.9l-.58.47c-1.66,1.37-3.33,2.8-4.98,4.24-1.16,1.01-2.28,2.01-3.34,2.98-.7.63-1.39,1.27-2.08,1.92-1.19,1.11-2.29,2.16-3.36,3.19-.7.68-1.4,1.37-2.1,2.07-1.35,1.34-2.67,2.69-3.91,4-.5.53-1,1.05-1.49,1.58l-.46.48c-1.34,1.44-2.59,2.82-3.82,4.21-.31.35-.62.7-.92,1.04l-.04.05c-1.34,1.52-2.72,3.15-4.24,4.98-.27.33-.55.66-.81,1l-.48.58c-1.22,1.5-2.46,3.07-3.71,4.69l-.04.06c-.24.32-.49.63-.73.96-1.4,1.84-2.63,3.5-3.75,5.06-.36.5-.71.99-1.06,1.48l-.46.64c-.94,1.34-1.88,2.7-2.85,4.14l-.04.06c-.4.59-.79,1.18-1.18,1.77-.83,1.26-1.7,2.61-2.74,4.25-.45.71-.9,1.43-1.34,2.15-.78,1.25-1.59,2.59-2.49,4.11-.39.67-.79,1.34-1.18,2.02-.83,1.43-1.64,2.87-2.51,4.45-.21.38-.42.76-.62,1.14l-.25.46c-.84,1.56-1.67,3.13-2.46,4.68-.2.39-.4.79-.61,1.18-.89,1.75-1.83,3.64-2.87,5.8-.91,1.9-1.81,3.84-2.66,5.74-1.97,4.37-3.86,8.89-5.63,13.44l-2.85-1.11c1.78-4.59,3.7-9.16,5.69-13.58.86-1.92,1.77-3.88,2.69-5.81,1.05-2.18,2-4.1,2.9-5.86.2-.4.41-.8.61-1.19.8-1.56,1.64-3.16,2.5-4.74l.25-.46c.21-.38.42-.77.63-1.15.88-1.6,1.7-3.05,2.51-4.45.43-.74.82-1.42,1.22-2.1.91-1.54,1.73-2.9,2.51-4.16.44-.73.9-1.46,1.36-2.19,1.05-1.66,1.93-3.02,2.77-4.29.39-.6.79-1.19,1.19-1.79l.04-.06c1.14-1.7,2.23-3.28,3.35-4.85l.46-.64c.2-.29.41-.57.61-.86,1.13-1.58,2.37-3.26,3.79-5.12.25-.33.5-.65.74-.97l.05-.06c1.42-1.85,2.84-3.64,4.22-5.32l.46-.56c.13-.16.26-.31.39-.47,1.54-1.86,2.94-3.51,4.3-5.05l.04-.05c.31-.35.62-.71.93-1.06,1.38-1.56,2.79-3.11,4.32-4.75l.46-.48c.35-.37.7-.74,1.05-1.11,1.27-1.33,2.6-2.69,3.97-4.05.71-.71,1.42-1.41,2.13-2.1,1.08-1.05,2.2-2.11,3.41-3.24.7-.66,1.41-1.31,2.11-1.95,1.07-.98,2.21-1.99,3.39-3.02,1.67-1.46,3.37-2.91,5.05-4.3l1.01-.82c1.93-1.58,3.9-3.13,5.86-4.62.4-.3.79-.61,1.19-.91,2.11-1.58,4.18-3.09,6.17-4.49.79-.56,1.59-1.12,2.39-1.66l.42-.28c.28-.19.56-.38.84-.56.38-.27.77-.53,1.16-.78l.18-.11c46.8-31.14,90.99-35.87,91.43-35.92l1.68-.17v153.36Z"/>
    <g>
      <path class="cls-4" d="M234.7,523.75v115.01h-89.79c6.35-2.06,19.17-6.83,33.38-17.1h0c2.72-1.97,5.5-4.14,8.3-6.54,2.15-1.84,4.3-3.81,6.45-5.91,1.82-1.79,3.63-3.67,5.43-5.66,1.57-1.74,3.13-3.56,4.66-5.46,1.38-1.7,2.74-3.46,4.08-5.29,1.14-1.56,2.26-3.17,3.37-4.83.08-.12.16-.23.23-.35,1.14-1.72,2.23-3.44,3.27-5.17,1.06-1.75,2.07-3.51,3.02-5.25.99-1.8,1.92-3.6,2.8-5.38.92-1.85,1.78-3.68,2.59-5.5.84-1.88,1.62-3.75,2.35-5.59.77-1.92,1.48-3.82,2.14-5.67h0c.69-1.95,1.32-3.85,1.9-5.72.62-1.97,1.18-3.89,1.69-5.76.55-2,1.03-3.93,1.46-5.77,1.28-5.47,2.1-10.26,2.65-14.07Z"/>
      <path class="cls-4" d="M234.7,523.76v115.01s89.78,0,89.78,0c-11.13-3.62-42.12-15.54-65.67-50.8-16.82-25.18-22.17-50.76-24.11-64.22Z"/>
    </g>
    <path class="cls-4" d="M233.39,480.22v36.01l-1.67-1.57h0l-6.4-6.02h0l-6.96-6.53-7.64-7.17-65.66-61.64h41.42c25.92,0,46.93,21.01,46.93,46.92Z"/>
    <path class="cls-4" d="M325.22,433.29h-41.42c-25.92,0-46.93,21.01-46.93,46.93v36.01s88.34-82.93,88.34-82.93Z"/>
    <polygon class="cls-4" points="248.25 429.58 243.52 431.05 247.33 434.21 242.4 433.75 244.71 438.14 240.32 435.83 240.78 440.76 237.62 436.95 236.15 441.68 234.68 436.95 231.51 440.76 231.97 435.83 227.59 438.14 229.9 433.75 224.96 434.21 228.77 431.05 224.04 429.58 228.77 428.11 224.96 424.94 229.9 425.4 227.59 421.02 231.97 423.32 231.52 418.39 234.68 422.2 236.15 417.47 237.62 422.2 240.78 418.39 240.33 423.32 244.71 421.02 242.4 425.4 247.33 424.94 243.52 428.11 248.25 429.58"/>
    <g>
      <path class="cls-4" d="M150.74,497.61c-2.85,0-5.41-.08-7.82-.23l.08-1.22c2.38.15,4.92.23,7.74.23,10.1,0,15.24-.99,20.21-1.94,1.28-.25,2.61-.5,3.99-.73h.1s0,.62,0,.62l.1.58c-1.38.23-2.69.48-3.97.73-5.03.97-10.23,1.96-20.44,1.96Z"/>
      <path class="cls-4" d="M150.74,503.4c-2.85,0-5.4-.08-7.82-.23l.08-1.22c2.39.15,4.92.23,7.74.23,10.12,0,15.27-.99,20.25-1.95,4.43-.85,9.02-1.74,17.04-1.93l.02,1.23c-7.91.19-12.44,1.06-16.83,1.91-5.03.97-10.24,1.97-20.48,1.97Z"/>
      <path class="cls-4" d="M150.74,509.19c-2.85,0-5.41-.08-7.82-.23l.08-1.22c2.39.15,4.92.23,7.74.23,10.12,0,15.27-.99,20.25-1.95,5.03-.97,10.24-1.97,20.47-1.97,4.27,0,8,.17,11.4.53l-.09,1.22h-.04c-3.35-.36-7.04-.53-11.27-.53-10.12,0-15.26.99-20.24,1.95-5.03.97-10.24,1.97-20.48,1.97Z"/>
      <polygon class="cls-4" points="224.32 508.96 224.31 508.96 224.31 507.73 224.32 508.96"/>
      <path class="cls-4" d="M150.74,514.99c-2.85,0-5.41-.08-7.82-.23l.08-1.22c2.38.15,4.92.23,7.74.23,10.12,0,15.27-.99,20.25-1.95,5.03-.97,10.24-1.97,20.47-1.97s15.44,1,20.48,1.97c2.27.44,4.62.89,7.4,1.24l-.07.58v.64s-.08,0-.08,0c-2.82-.36-5.19-.81-7.48-1.25-4.98-.96-10.12-1.95-20.24-1.95s-15.26.99-20.24,1.95c-5.03.97-10.24,1.97-20.48,1.97Z"/>
      <path class="cls-4" d="M232.17,520.78c-.74,0-1.45,0-2.14-.02-8.84-.13-13.66-1.06-18.33-1.95-4.98-.96-10.12-1.95-20.24-1.95s-15.26.99-20.24,1.95c-5.03.97-10.24,1.97-20.48,1.97-2.85,0-5.41-.08-7.82-.23l.08-1.22c2.39.15,4.92.23,7.74.23,10.12,0,15.27-.99,20.25-1.95,5.03-.97,10.24-1.97,20.47-1.97s15.44,1,20.47,1.97c4.62.89,9.39,1.81,18.12,1.93.69.01,1.39.02,2.12.02v1.23Z"/>
      <path class="cls-4" d="M150.74,526.57c-2.85,0-5.41-.08-7.82-.23l.08-1.22c2.38.15,4.92.23,7.74.23,10.12,0,15.27-.99,20.25-1.95,5.03-.97,10.24-1.97,20.47-1.97s15.44,1,20.47,1.97c4.39.84,8.92,1.72,16.85,1.91l-.03,1.22c-8.03-.19-12.62-1.08-17.05-1.93-4.98-.96-10.12-1.95-20.24-1.95s-15.26.99-20.24,1.95c-5.03.97-10.24,1.97-20.48,1.97Z"/>
      <path class="cls-4" d="M150.74,532.37c-2.85,0-5.41-.08-7.82-.23l.08-1.22c2.38.15,4.92.23,7.74.23,10.12,0,15.27-.99,20.25-1.95,5.03-.97,10.24-1.97,20.47-1.97s15.43,1,20.46,1.97c2.84.55,5.78,1.11,9.59,1.48l-.12,1.22c-3.87-.38-6.84-.95-9.71-1.5-4.97-.96-10.12-1.95-20.22-1.95s-15.26.99-20.24,1.95c-5.03.97-10.24,1.97-20.48,1.97Z"/>
      <path class="cls-4" d="M150.74,538.15c-2.85,0-5.41-.08-7.82-.23l.08-1.22c2.38.15,4.92.23,7.74.23,10.12,0,15.27-.99,20.25-1.95,5.03-.97,10.24-1.97,20.47-1.97s15.44,1,20.47,1.97c1.11.21,2.22.43,3.38.63l-.1.59v.63s-.11,0-.11,0c-1.17-.2-2.28-.42-3.4-.63-4.98-.96-10.12-1.95-20.24-1.95s-15.26.99-20.24,1.95c-5.03.97-10.24,1.97-20.48,1.97Z"/>
      <path class="cls-4" d="M150.74,543.95c-2.85,0-5.41-.08-7.82-.23l.08-1.22c2.38.15,4.92.23,7.74.23,10.12,0,15.27-.99,20.25-1.95,5.03-.97,10.24-1.97,20.47-1.97,9.11,0,14.21.8,18.27,1.55l-.22,1.21c-4.01-.74-9.03-1.53-18.04-1.53-10.12,0-15.26.99-20.24,1.95-5.03.97-10.24,1.97-20.48,1.97Z"/>
      <path class="cls-4" d="M150.74,549.74c-2.85,0-5.41-.08-7.82-.23l.08-1.22c2.38.15,4.92.23,7.74.23,10.12,0,15.27-.99,20.25-1.95,5.03-.97,10.24-1.97,20.47-1.97,4.87,0,8.93.22,12.77.69l-.15,1.22c-3.79-.47-7.8-.68-12.62-.68-10.12,0-15.26.99-20.24,1.95-5.03.97-10.24,1.97-20.48,1.97Z"/>
      <path class="cls-4" d="M150.74,555.53c-2.85,0-5.41-.08-7.82-.23l.08-1.22c2.38.15,4.92.23,7.74.23,10.12,0,15.27-.99,20.25-1.95,5.03-.97,10.24-1.97,20.47-1.97,2.62,0,4.99.06,7.23.2l-.07,1.22c-2.22-.13-4.56-.19-7.16-.19-10.12,0-15.26.99-20.24,1.95-5.03.97-10.24,1.97-20.48,1.97Z"/>
      <path class="cls-4" d="M150.74,561.32c-2.85,0-5.4-.08-7.82-.23l.08-1.22c2.39.15,4.92.23,7.74.23,10.12,0,15.27-.99,20.25-1.95,5.03-.97,10.24-1.97,20.47-1.97.6,0,1.19,0,1.75.01v1.23c-.57,0-1.15-.01-1.75-.01-10.12,0-15.26.99-20.24,1.95-5.03.97-10.24,1.97-20.48,1.97Z"/>
      <path class="cls-4" d="M150.74,567.11c-2.85,0-5.41-.08-7.82-.23l.08-1.22c2.38.15,4.92.23,7.74.23,10.12,0,15.26-.99,20.24-1.95,4.42-.85,8.98-1.73,16.94-1.93l.03,1.22c-7.86.19-12.37,1.06-16.74,1.9-5.03.97-10.24,1.97-20.47,1.97Z"/>
      <path class="cls-4" d="M150.74,572.91c-2.85,0-5.41-.08-7.82-.23l.08-1.22c2.38.15,4.92.23,7.74.23,10.12,0,15.27-.99,20.25-1.95,3.36-.65,6.84-1.32,11.8-1.68l.05.61v.61c-4.85.36-8.29,1.02-11.62,1.66-5.03.97-10.24,1.97-20.48,1.97Z"/>
      <path class="cls-4" d="M150.74,578.7c-2.85,0-5.4-.08-7.82-.23l.08-1.22c2.39.15,4.92.23,7.74.23,10.13,0,15.28-.99,20.26-1.95,2.09-.4,4.26-.82,6.77-1.16l.16,1.21c-2.47.34-4.62.75-6.7,1.15-5.03.97-10.24,1.97-20.49,1.97Z"/>
      <path class="cls-4" d="M150.74,584.49c-2.85,0-5.41-.08-7.82-.23l.08-1.22c2.38.15,4.92.23,7.74.23,10.11,0,15.25-.99,20.23-1.95.64-.12,1.28-.25,1.93-.37h.11s0,.62,0,.62l.11.58c-.65.12-1.28.24-1.92.37-5.03.97-10.23,1.97-20.46,1.97Z"/>
      <path class="cls-4" d="M150.74,590.28c-2.85,0-5.4-.08-7.82-.23l.08-1.22c2.39.15,4.92.23,7.74.23,7.98,0,12.81-.58,17.61-1.45l.22,1.21c-4.86.88-9.75,1.47-17.83,1.47Z"/>
      <path class="cls-4" d="M150.74,596.07c-2.85,0-5.41-.08-7.82-.23l.08-1.22c2.38.15,4.92.23,7.74.23,5.2,0,9.49-.25,13.53-.8l.16,1.21c-4.09.55-8.44.81-13.69.81Z"/>
      <path class="cls-4" d="M150.74,601.87c-2.85,0-5.4-.08-7.82-.23l.08-1.22c2.39.15,4.92.23,7.74.23,3.64,0,6.86-.13,9.84-.38l.11,1.22c-3.02.26-6.27.39-9.95.39Z"/>
      <path class="cls-4" d="M150.74,607.66c-2.85,0-5.41-.08-7.82-.23l.08-1.22c2.39.15,4.92.23,7.74.23,2.27,0,4.46-.05,6.5-.16l.06,1.22c-2.06.1-4.26.16-6.56.16Z"/>
      <path class="cls-4" d="M150.74,613.45c-2.85,0-5.4-.08-7.82-.23l.08-1.22c2.39.15,4.92.23,7.74.23,1.21,0,2.35-.01,3.42-.04l.03,1.22c-1.08.03-2.23.04-3.45.04Z"/>
      <path class="cls-4" d="M150.74,619.24c-2.85,0-5.41-.08-7.82-.23l.08-1.22c2.39.15,4.92.23,7.74.23.17,0,.36,0,.53,0l.04,1.22c-.19,0-.38,0-.58,0Z"/>
      <path class="cls-4" d="M148.61,625.01c-2.07-.03-3.93-.09-5.69-.21l.08-1.22c1.73.11,3.57.18,5.62.21l-.02,1.23Z"/>
    </g>
    <g>
      <path class="cls-4" d="M317.86,497.61c2.85,0,5.41-.08,7.82-.23l-.08-1.22c-2.38.15-4.92.23-7.74.23-10.1,0-15.24-.99-20.21-1.94-1.28-.25-2.61-.5-3.99-.73h-.1s0,.62,0,.62l-.1.58c1.38.23,2.69.48,3.97.73,5.03.97,10.23,1.96,20.44,1.96Z"/>
      <path class="cls-4" d="M317.86,503.4c2.85,0,5.4-.08,7.82-.23l-.08-1.22c-2.39.15-4.92.23-7.74.23-10.12,0-15.27-.99-20.25-1.95-4.43-.85-9.02-1.74-17.04-1.93l-.02,1.23c7.91.19,12.44,1.06,16.83,1.91,5.03.97,10.24,1.97,20.48,1.97Z"/>
      <path class="cls-4" d="M317.86,509.19c2.85,0,5.41-.08,7.82-.23l-.08-1.22c-2.39.15-4.92.23-7.74.23-10.12,0-15.27-.99-20.25-1.95-5.03-.97-10.24-1.97-20.47-1.97-4.27,0-8,.17-11.4.53l.09,1.22h.04c3.35-.36,7.04-.53,11.27-.53,10.12,0,15.26.99,20.24,1.95,5.03.97,10.24,1.97,20.48,1.97Z"/>
      <polygon class="cls-4" points="244.28 508.96 244.29 508.96 244.29 507.73 244.28 508.96"/>
      <path class="cls-4" d="M317.86,514.99c2.85,0,5.41-.08,7.82-.23l-.08-1.22c-2.38.15-4.92.23-7.74.23-10.12,0-15.27-.99-20.25-1.95-5.03-.97-10.24-1.97-20.47-1.97s-15.44,1-20.48,1.97c-2.27.44-4.62.89-7.4,1.24l.07.58v.64s.08,0,.08,0c2.82-.36,5.19-.81,7.48-1.25,4.98-.96,10.12-1.95,20.24-1.95,10.12,0,15.26.99,20.24,1.95,5.03.97,10.24,1.97,20.48,1.97Z"/>
      <path class="cls-4" d="M236.43,520.78c.74,0,1.45,0,2.14-.02,8.84-.13,13.66-1.06,18.33-1.95,4.98-.96,10.12-1.95,20.24-1.95,10.12,0,15.26.99,20.24,1.95,5.03.97,10.24,1.97,20.48,1.97,2.85,0,5.41-.08,7.82-.23l-.08-1.22c-2.39.15-4.92.23-7.74.23-10.12,0-15.27-.99-20.25-1.95-5.03-.97-10.24-1.97-20.47-1.97s-15.44,1-20.47,1.97c-4.62.89-9.39,1.81-18.12,1.93-.69.01-1.39.02-2.12.02v1.23Z"/>
      <path class="cls-4" d="M317.86,526.57c2.85,0,5.41-.08,7.82-.23l-.08-1.22c-2.38.15-4.92.23-7.74.23-10.12,0-15.27-.99-20.25-1.95-5.03-.97-10.24-1.97-20.47-1.97-10.24,0-15.44,1-20.47,1.97-4.39.84-8.92,1.72-16.85,1.91l.03,1.22c8.03-.19,12.62-1.08,17.05-1.93,4.98-.96,10.12-1.95,20.24-1.95,10.12,0,15.26.99,20.24,1.95,5.03.97,10.24,1.97,20.48,1.97Z"/>
      <path class="cls-4" d="M317.86,532.37c2.85,0,5.41-.08,7.82-.23l-.08-1.22c-2.38.15-4.92.23-7.74.23-10.12,0-15.27-.99-20.25-1.95-5.03-.97-10.24-1.97-20.47-1.97-10.22,0-15.43,1-20.46,1.97-2.84.55-5.78,1.11-9.59,1.48l.12,1.22c3.87-.38,6.84-.95,9.71-1.5,4.97-.96,10.12-1.95,20.22-1.95,10.12,0,15.26.99,20.24,1.95,5.03.97,10.24,1.97,20.48,1.97Z"/>
      <path class="cls-4" d="M317.86,538.15c2.85,0,5.41-.08,7.82-.23l-.08-1.22c-2.38.15-4.92.23-7.74.23-10.12,0-15.27-.99-20.25-1.95-5.03-.97-10.24-1.97-20.47-1.97-10.24,0-15.44,1-20.47,1.97-1.11.21-2.22.43-3.38.63l.1.59v.63s.11,0,.11,0c1.17-.2,2.28-.42,3.4-.63,4.98-.96,10.12-1.95,20.24-1.95,10.12,0,15.26.99,20.24,1.95,5.03.97,10.24,1.97,20.48,1.97Z"/>
      <path class="cls-4" d="M317.86,543.95c2.85,0,5.41-.08,7.82-.23l-.08-1.22c-2.38.15-4.92.23-7.74.23-10.12,0-15.27-.99-20.25-1.95-5.03-.97-10.24-1.97-20.47-1.97-9.11,0-14.21.8-18.27,1.55l.22,1.21c4.01-.74,9.03-1.53,18.04-1.53,10.12,0,15.26.99,20.24,1.95,5.03.97,10.24,1.97,20.48,1.97Z"/>
      <path class="cls-4" d="M317.86,549.74c2.85,0,5.41-.08,7.82-.23l-.08-1.22c-2.38.15-4.92.23-7.74.23-10.12,0-15.27-.99-20.25-1.95-5.03-.97-10.24-1.97-20.47-1.97-4.87,0-8.93.22-12.77.69l.15,1.22c3.79-.47,7.8-.68,12.62-.68,10.12,0,15.26.99,20.24,1.95,5.03.97,10.24,1.97,20.48,1.97Z"/>
      <path class="cls-4" d="M317.86,555.53c2.85,0,5.41-.08,7.82-.23l-.08-1.22c-2.38.15-4.92.23-7.74.23-10.12,0-15.27-.99-20.25-1.95-5.03-.97-10.24-1.97-20.47-1.97-2.62,0-4.99.06-7.23.2l.07,1.22c2.22-.13,4.56-.19,7.16-.19,10.12,0,15.26.99,20.24,1.95,5.03.97,10.24,1.97,20.48,1.97Z"/>
      <path class="cls-4" d="M317.86,561.32c2.85,0,5.4-.08,7.82-.23l-.08-1.22c-2.39.15-4.92.23-7.74.23-10.12,0-15.27-.99-20.25-1.95-5.03-.97-10.24-1.97-20.47-1.97-.6,0-1.19,0-1.75.01v1.23c.57,0,1.15-.01,1.75-.01,10.12,0,15.26.99,20.24,1.95,5.03.97,10.24,1.97,20.48,1.97Z"/>
      <path class="cls-4" d="M317.86,567.11c2.85,0,5.41-.08,7.82-.23l-.08-1.22c-2.38.15-4.92.23-7.74.23-10.12,0-15.26-.99-20.24-1.95-4.42-.85-8.98-1.73-16.94-1.93l-.03,1.22c7.86.19,12.37,1.06,16.74,1.9,5.03.97,10.24,1.97,20.47,1.97Z"/>
      <path class="cls-4" d="M317.86,572.91c2.85,0,5.41-.08,7.82-.23l-.08-1.22c-2.38.15-4.92.23-7.74.23-10.12,0-15.27-.99-20.25-1.95-3.36-.65-6.84-1.32-11.8-1.68l-.05.61v.61c4.85.36,8.29,1.02,11.62,1.66,5.03.97,10.24,1.97,20.48,1.97Z"/>
      <path class="cls-4" d="M317.86,578.7c2.85,0,5.4-.08,7.82-.23l-.08-1.22c-2.39.15-4.92.23-7.74.23-10.13,0-15.28-.99-20.26-1.95-2.09-.4-4.26-.82-6.77-1.16l-.16,1.21c2.47.34,4.62.75,6.7,1.15,5.03.97,10.24,1.97,20.49,1.97Z"/>
      <path class="cls-4" d="M317.86,584.49c2.85,0,5.41-.08,7.82-.23l-.08-1.22c-2.38.15-4.92.23-7.74.23-10.11,0-15.25-.99-20.23-1.95-.64-.12-1.28-.25-1.93-.37h-.11s0,.62,0,.62l-.11.58c.65.12,1.28.24,1.92.37,5.03.97,10.23,1.97,20.46,1.97Z"/>
      <path class="cls-4" d="M317.86,590.28c2.85,0,5.4-.08,7.82-.23l-.08-1.22c-2.39.15-4.92.23-7.74.23-7.98,0-12.81-.58-17.61-1.45l-.22,1.21c4.86.88,9.75,1.47,17.83,1.47Z"/>
      <path class="cls-4" d="M317.86,596.07c2.85,0,5.41-.08,7.82-.23l-.08-1.22c-2.38.15-4.92.23-7.74.23-5.2,0-9.49-.25-13.53-.8l-.16,1.21c4.09.55,8.44.81,13.69.81Z"/>
      <path class="cls-4" d="M317.86,601.87c2.85,0,5.4-.08,7.82-.23l-.08-1.22c-2.39.15-4.92.23-7.74.23-3.64,0-6.86-.13-9.84-.38l-.11,1.22c3.02.26,6.27.39,9.95.39Z"/>
      <path class="cls-4" d="M317.86,607.66c2.85,0,5.41-.08,7.82-.23l-.08-1.22c-2.39.15-4.92.23-7.74.23-2.27,0-4.46-.05-6.5-.16l-.06,1.22c2.06.1,4.26.16,6.56.16Z"/>
      <path class="cls-4" d="M317.86,613.45c2.85,0,5.4-.08,7.82-.23l-.08-1.22c-2.39.15-4.92.23-7.74.23-1.21,0-2.35-.01-3.42-.04l-.03,1.22c1.08.03,2.23.04,3.45.04Z"/>
      <path class="cls-4" d="M317.86,619.24c2.85,0,5.41-.08,7.82-.23l-.08-1.22c-2.39.15-4.92.23-7.74.23-.17,0-.36,0-.53,0l-.04,1.22c.19,0,.38,0,.58,0Z"/>
      <path class="cls-4" d="M319.99,625.01c2.07-.03,3.93-.09,5.69-.21l-.08-1.22c-1.73.11-3.57.18-5.62.21l.02,1.23Z"/>
    </g>
  </g>
  <line class="cls-14" x1="373.48" y1="611.83" x2="549.84" y2="611.83"/>
  <line class="cls-14" x1="1476.44" y1="611.83" x2="1652.8" y2="611.83"/>
</svg>