<svg width="1806" height="242" viewBox="0 0 1806 242" fill="none" xmlns="http://www.w3.org/2000/svg">
<path d="M172.26 163.651C186.57 182.561 196.25 201.201 202.88 217.301C203.41 218.591 204.66 219.431 206.05 219.431C207.94 219.431 209.48 217.891 209.48 216.001V35.4209C209.48 33.1509 206.36 32.5009 205.47 34.6009C202.08 42.5309 198.35 50.3009 194.27 57.8909C180.83 82.8809 163.8 105.741 143.64 125.841L141.9 127.571C141.05 128.421 141.09 129.801 141.98 130.601C151.58 139.291 162.08 150.191 172.26 163.651Z" fill="white"/>
<path d="M46.45 219.431C47.4 219.431 48.32 219.031 48.97 218.341L135.14 126.111L137.05 124.071L142.76 117.961L142.71 117.911C160.94 99.1009 176.43 77.9309 188.8 54.9309C191.17 50.5209 193.42 46.0609 195.55 41.5409C201.83 28.1909 207.06 14.3209 211.2 0.120911H200.25C195 17.3809 188.07 34.1009 179.54 49.9609C167.66 72.0609 152.78 92.4009 135.27 110.491C133.83 109.031 132.38 107.551 130.92 106.041C118.42 93.1009 105.45 78.6009 92.45 62.4209C75.41 41.2409 61.1 20.6709 49.11 1.56091C47.34 -1.25909 43 -0.00907683 43 3.32092V215.981C43 217.881 44.54 219.431 46.45 219.431Z" fill="white"/>
<path d="M132.369 65.2108C143.785 65.2108 153.039 55.9566 153.039 44.5409C153.039 33.1251 143.785 23.8708 132.369 23.8708C120.953 23.8708 111.699 33.1251 111.699 44.5409C111.699 55.9566 120.953 65.2108 132.369 65.2108Z" fill="white"/>
<path d="M151.66 219.431V179.641C151.66 169.971 143.75 162.061 134.08 162.061C124.41 162.061 116.5 169.971 116.5 179.641V219.431H151.66Z" fill="white"/>
<path d="M375.769 150.001C375.769 170.051 356.199 186.241 332.289 186.241C320.209 186.241 256.199 186.481 254.749 186.481C253.549 186.481 252.099 185.521 252.329 184.061C252.819 180.681 264.169 183.331 264.169 164.491V73.6709C264.169 54.8309 252.819 57.7209 252.329 54.1009C252.089 52.6509 253.529 51.9209 254.749 51.9209H320.939C345.099 51.9209 364.669 68.1109 364.669 88.1509C364.669 99.5009 358.149 109.641 348.249 116.421C364.439 121.741 375.789 134.781 375.789 149.991H375.779L375.769 150.001ZM307.169 113.761C321.669 113.761 332.529 102.641 332.529 88.1609C332.529 73.6809 321.659 62.5609 307.169 62.5609H299.199V113.771H307.169V113.761ZM346.059 150.001C346.059 135.271 335.189 124.401 320.699 124.401H299.209V175.611H320.699C335.199 175.611 346.059 164.741 346.059 150.011V150.001Z" fill="white"/>
<path d="M476.02 115.691C476.02 141.541 443.41 143.961 443.41 124.391C449.69 124.391 450.66 113.271 442.68 113.271C433.25 113.271 418.77 121.481 411.27 146.121V164.481C411.27 183.321 422.62 180.671 423.1 184.051C423.34 185.501 421.9 186.471 420.45 186.471C417.8 186.471 406.2 183.571 397.5 183.571C388.8 183.571 377.21 186.471 374.31 186.471C373.11 186.471 371.66 185.511 371.89 184.051C372.38 180.671 383.73 183.321 383.73 164.481V133.561C383.73 114.481 371.65 112.781 371.89 109.401C371.89 108.201 373.09 107.221 374.31 107.221C385.9 107.221 402.33 97.801 405.47 93.941C408.37 90.561 411.27 91.291 411.27 94.431V124.391C427.46 79.941 476 85.021 476 115.691H476.01H476.02Z" fill="white"/>
<path d="M569.979 160.861C562.259 175.111 544.379 186.461 526.739 186.461C499.439 186.461 477.219 165.201 477.219 139.121C477.219 113.041 499.439 91.7808 526.739 91.7808C564.909 91.7808 575.769 122.461 559.109 139.611C546.549 152.891 517.319 156.271 509.109 142.031C511.039 178.751 550.169 174.401 563.939 160.381C567.319 156.761 571.909 157.241 569.969 160.871L569.979 160.861ZM509.349 134.301C534.709 148.551 550.659 107.001 533.749 103.621C521.429 101.201 510.799 116.181 509.349 134.301Z" fill="white"/>
<path d="M662.979 160.861C655.259 175.111 637.379 186.461 619.739 186.461C592.439 186.461 570.219 165.201 570.219 139.121C570.219 113.041 592.439 91.7808 619.739 91.7808C657.909 91.7808 668.769 122.461 652.109 139.611C639.549 152.891 610.319 156.271 602.109 142.031C604.039 178.751 643.169 174.401 656.939 160.381C660.319 156.761 664.909 157.241 662.969 160.871L662.979 160.861ZM602.349 134.301C627.709 148.551 643.659 107.001 626.749 103.621C614.429 101.201 603.799 116.181 602.349 134.301Z" fill="white"/>
<path d="M713.219 171.981C712.259 173.181 711.529 174.631 710.799 175.851H726.748C738.338 175.851 756.939 161.351 761.779 156.051C764.679 152.671 769.029 153.871 767.339 157.501C764.919 162.571 753.328 186.491 753.328 186.491H672.409L672.898 185.761L669.998 186.491C668.308 186.731 666.378 182.621 670.958 181.181C676.518 179.251 681.349 175.621 684.729 170.061L724.589 106.291L727.008 102.421H706.229C687.629 102.421 688.349 118.611 700.429 118.611C700.429 139.141 663.229 138.411 663.229 116.681C663.229 100.981 678.689 91.7909 706.229 91.7909H767.828C770.248 91.3009 771.699 96.1309 766.869 97.5909C761.309 99.5209 755.518 104.351 752.138 109.911L713.248 171.991H713.239L713.219 171.981Z" fill="white"/>
<path d="M864.43 160.861C856.71 175.111 838.83 186.461 821.19 186.461C793.89 186.461 771.67 165.201 771.67 139.121C771.67 113.041 793.89 91.7808 821.19 91.7808C859.36 91.7808 870.22 122.461 853.56 139.611C841 152.891 811.77 156.271 803.56 142.031C805.49 178.751 844.62 174.401 858.39 160.381C861.77 156.761 866.36 157.241 864.42 160.871L864.43 160.861ZM803.8 134.301C829.16 148.551 845.11 107.001 828.2 103.621C815.88 101.201 805.25 116.181 803.8 134.301Z" fill="white"/>
<path d="M996.079 186.461C995.119 186.461 973.129 179.941 959.119 186.461V175.111C954.779 180.911 943.659 186.461 926.999 186.461C899.709 186.461 890.519 155.301 923.129 142.731C936.169 137.661 959.119 134.521 959.119 122.441C959.119 110.361 953.089 99.731 941.729 101.421C928.689 103.601 927.719 123.401 940.999 123.401C940.999 140.791 906.209 143.451 906.209 120.981C906.209 105.281 923.599 91.751 945.099 91.751C969.739 91.751 986.889 102.381 986.889 129.921V164.461C986.889 183.301 998.009 180.651 998.479 184.031C998.719 185.481 997.279 186.451 996.059 186.451L996.079 186.461ZM959.119 139.121C953.319 144.191 927.959 151.931 931.579 165.211C934.719 177.531 949.939 174.391 959.119 163.281V139.121Z" fill="white"/>
<path d="M1105.02 184.061C1105.02 185.511 1103.82 186.481 1102.37 186.481C1099.47 186.481 1087.87 183.581 1079.42 183.581C1070.97 183.581 1059.13 186.481 1056.22 186.481C1055.02 186.481 1053.57 185.521 1053.8 184.061C1054.29 180.681 1065.39 183.331 1065.39 164.491V133.811C1065.39 103.381 1042.93 100.961 1030.36 117.151V164.491C1030.36 183.331 1041.71 180.681 1042.2 184.061C1042.44 185.511 1041 186.481 1039.55 186.481C1036.9 186.481 1025.3 183.581 1016.6 183.581C1007.9 183.581 996.309 186.481 993.409 186.481C992.209 186.481 990.759 185.521 990.989 184.061C991.479 180.681 1002.83 183.331 1002.83 164.491V133.571C1002.83 114.491 990.749 112.791 990.989 109.411C990.989 108.211 992.189 107.231 993.409 107.231C1005 107.231 1021.44 97.811 1024.57 93.951C1027.47 90.571 1030.37 91.301 1030.37 94.441V106.031C1030.37 106.031 1043.9 91.7809 1057.18 91.7809C1081.82 91.7809 1093.17 110.621 1093.17 133.821V164.501C1093.17 183.341 1104.29 180.691 1105.01 184.071H1105L1105.02 184.061Z" fill="white"/>
<path d="M1205.02 178.011C1205.02 179.211 1203.82 179.941 1202.6 179.941C1191.01 179.941 1174.58 189.601 1171.44 193.471C1168.54 196.611 1165.64 196.121 1165.64 192.741V180.421C1159.36 184.291 1152.11 186.451 1144.62 186.451C1120.71 186.451 1101.38 165.191 1101.38 139.111C1101.38 113.031 1120.71 91.7709 1144.62 91.7709C1152.11 91.7709 1159.35 93.9509 1165.64 97.8209V84.0509C1165.64 65.2109 1153.56 63.2709 1153.8 59.8909C1153.8 58.6909 1155 57.7109 1156.22 57.7109C1167.81 57.7109 1184.24 48.2809 1187.38 44.4309C1190.28 41.2909 1193.18 41.7809 1193.18 45.1609V153.861C1193.18 172.701 1205.26 174.631 1205.01 178.021H1205.02V178.011ZM1165.65 108.201C1163.72 105.551 1161.31 103.611 1158.4 103.131C1148.5 100.951 1136.66 113.031 1131.82 133.321C1126.99 152.651 1133.75 173.181 1144.63 175.111C1153.08 176.801 1160.82 167.861 1165.65 154.331V108.191V108.201Z" fill="white"/>
<path d="M1364.69 143.951V164.481C1364.69 183.321 1375.81 180.671 1376.28 184.051C1376.52 185.501 1375.32 186.471 1373.86 186.471C1373.13 186.471 1364.68 186.231 1364.68 186.231C1351.15 186.471 1319.75 186.471 1313.23 186.471C1274.34 186.471 1242.69 156.281 1242.69 119.071C1242.69 81.8609 1276.26 51.9209 1315.16 51.9209C1349.22 51.9209 1376.27 69.5609 1373.37 89.1209C1369.26 117.861 1323.85 119.081 1323.85 90.3209C1341.96 90.3209 1336.66 62.5409 1315.15 62.5409C1299.2 62.5409 1284.23 87.9009 1284.23 119.061C1284.23 159.161 1306.94 173.171 1329.65 171.241V143.941C1329.41 125.101 1318.3 127.751 1317.82 124.371C1317.58 122.921 1319.02 121.951 1320.24 121.951C1321.69 121.951 1335.7 125.331 1347.05 125.331C1358.4 125.331 1372.41 121.951 1373.86 121.951C1375.31 121.951 1376.51 122.911 1376.28 124.371C1375.79 127.751 1364.69 125.101 1364.69 143.941V143.951Z" fill="white"/>
<path d="M1530.88 184.061C1531.12 185.511 1529.68 186.481 1528.46 186.481C1527.5 186.481 1505.51 179.961 1491.5 186.481V175.131C1487.16 180.931 1475.8 186.481 1459.38 186.481C1431.84 186.481 1422.9 155.321 1455.51 142.751C1468.32 137.681 1491.26 134.541 1491.26 122.461C1491.26 106.511 1466.62 96.611 1438.36 117.631C1428.46 124.881 1420.01 135.021 1416.14 146.131V164.491C1416.14 183.331 1427.49 180.681 1427.98 184.061C1428.22 185.511 1426.78 186.481 1425.33 186.481C1422.68 186.481 1411.08 183.581 1402.38 183.581C1393.68 183.581 1382.09 186.481 1379.18 186.481C1377.98 186.481 1376.53 185.521 1376.76 184.061C1377.25 180.681 1388.6 183.331 1388.6 164.491V133.571C1388.6 114.491 1376.52 112.791 1376.76 109.411C1376.76 108.211 1377.96 107.231 1379.18 107.231C1390.77 107.231 1407.2 97.811 1410.34 93.951C1412.99 90.571 1416.14 91.301 1416.14 94.441V126.091C1432.09 102.661 1459.38 91.7909 1477.49 91.7909C1502.13 91.7909 1519.04 102.421 1519.04 129.961V164.501C1519.04 183.341 1530.39 180.691 1530.88 184.071H1530.87L1530.88 184.061ZM1491.51 163.281V139.121C1485.48 144.191 1460.35 151.931 1463.73 165.211C1467.11 177.531 1482.33 174.391 1491.51 163.281Z" fill="white"/>
<path d="M1557.45 183.571C1548.75 183.571 1537.16 186.471 1534.25 186.471C1533.05 186.471 1531.6 185.511 1531.83 184.051C1532.32 180.671 1543.67 183.321 1543.67 164.481V133.561C1543.67 114.481 1531.59 112.781 1531.83 109.401C1531.83 108.201 1533.03 107.221 1534.25 107.221C1545.84 107.221 1562.27 97.801 1565.41 93.941C1568.31 90.561 1571.21 91.291 1571.21 94.431V164.481C1571.21 183.321 1582.56 180.671 1583.05 184.051C1583.29 185.501 1581.85 186.471 1580.4 186.471C1577.75 186.471 1566.15 183.571 1557.45 183.571ZM1542.23 72.211C1542.23 63.761 1548.99 56.991 1557.2 56.991C1565.41 56.991 1572.42 63.751 1572.42 72.211C1572.42 80.671 1565.66 87.181 1557.2 87.181C1548.74 87.181 1542.23 80.421 1542.23 72.211Z" fill="white"/>
<path d="M1697.07 184.061C1697.07 185.511 1695.87 186.481 1694.42 186.481C1691.52 186.481 1679.92 183.581 1671.47 183.581C1663.02 183.581 1651.18 186.481 1648.28 186.481C1647.07 186.481 1645.63 185.521 1645.86 184.061C1646.35 180.681 1657.45 183.331 1657.45 164.491V133.811C1657.45 103.381 1634.98 100.961 1622.42 117.151V164.491C1622.42 183.331 1633.77 180.681 1634.26 184.061C1634.5 185.511 1633.06 186.481 1631.61 186.481C1628.96 186.481 1617.36 183.581 1608.66 183.581C1599.96 183.581 1588.37 186.481 1585.46 186.481C1584.26 186.481 1582.81 185.521 1583.04 184.061C1583.53 180.681 1594.88 183.331 1594.88 164.491V133.571C1594.88 114.491 1582.8 112.791 1583.04 109.411C1583.04 108.211 1584.24 107.231 1585.46 107.231C1597.05 107.231 1613.48 97.811 1616.62 93.951C1619.52 90.571 1622.42 91.301 1622.42 94.441V106.031C1622.42 106.031 1635.95 91.7809 1649.23 91.7809C1673.87 91.7809 1685.22 110.621 1685.22 133.821V164.501C1685.22 183.341 1696.34 180.691 1697.06 184.071H1697.05L1697.07 184.061Z" fill="white"/>
<path d="M1740.06 100.471C1732.57 100.711 1727.5 105.301 1729.19 113.031C1731.84 124.151 1749.97 130.181 1760.6 136.701L1763.02 138.151C1770.02 142.981 1774.37 149.991 1775.83 156.031C1779.21 170.281 1766.65 185.021 1741.29 186.221C1716.65 187.421 1700.71 179.701 1698.05 168.831C1694.18 151.921 1725.59 148.781 1729.7 163.271C1718.11 166.651 1724.39 177.771 1734.53 177.521C1742.02 177.521 1747.34 172.931 1745.4 164.961C1742.75 154.091 1725.35 147.571 1714.72 141.291L1712.07 139.601C1705.31 135.011 1700.48 128.011 1699.03 121.961C1695.65 107.951 1707.97 93.221 1733.57 91.771C1758.21 90.571 1773.92 98.291 1776.57 109.411C1780.68 126.321 1749.03 129.461 1744.92 114.971C1756.51 111.591 1750.48 100.471 1740.09 100.471H1740.08H1740.06Z" fill="white"/>
</svg>
